<?xml version="1.0" encoding="UTF-8"?>
<svg id="Layer_2" data-name="Layer 2" xmlns="http://www.w3.org/2000/svg" viewBox="0 0 195.34 154.06">
  <defs>
    <style>
      .cls-1 {
        fill: #ed1c24;
        stroke-width: 0px;
      }
    </style>
  </defs>
  <g id="Layer_1-2" data-name="Layer 1">
    <path class="cls-1" d="M37.18,59.41h115.11c2.76,0,5,2.24,5,5v46.04c0,2.76-2.24,5-5,5H42.18c-2.76,0-5-2.24-5-5v-51.04h0Z"/>
    <path class="cls-1" d="M5,102.02h32.05c8.28,0,15,6.72,15,15v32.05c0,2.76-2.24,5-5,5H5c-2.76,0-5-2.24-5-5v-42.05c0-2.76,2.24-5,5-5Z"/>
    <path class="cls-1" d="M158.29,102.02h32.05c2.76,0,5,2.24,5,5v42.05c0,2.76-2.24,5-5,5h-42.05c-2.76,0-5-2.24-5-5v-32.05c0-8.28,6.72-15,15-15Z"/>
    <path class="cls-1" d="M87.5,0h-45.32c-2.76,0-5,2.24-5,5v54.41h55.32V5c0-2.76-2.24-5-5-5ZM78.26,25.33c0-5.8-4.66-10.49-10.4-10.49,5.74,0,10.4-4.7,10.4-10.49,0,5.8,4.66,10.49,10.4,10.49-5.74,0-10.4,4.7-10.4,10.49Z"/>
  </g>
</svg>